<svg role="img" data-logo-brand="inditex" class="sw-amiga-logo" xmlns="http://www.w3.org/2000/svg" width="80" height="auto" viewBox="0 0 80 18"><path d="M2.91743 0H0V16H2.9189L2.91743 0Z" fill="currentColor"></path><path d="M18.4208 0H15.5019V11.0902L7.29504 0H4.37688V16H7.29504V4.90905L15.5033 16H18.4222L18.4208 0Z" fill="currentColor"></path><path d="M26.0821 0H19.8802V16H26.0821C28.1976 15.9978 30.2254 15.1539 31.7217 13.6536C33.2165 12.1541 34.0583 10.1215 34.0612 8.00111C34.0583 5.88067 33.2172 3.84735 31.7217 2.34784C30.2261 0.846846 28.1976 0.00221494 26.0821 0ZM30.7598 9.93992C30.5055 10.5557 30.1325 11.1153 29.6622 11.5864C29.192 12.0574 28.634 12.431 28.0192 12.685C27.4045 12.939 26.7463 13.0689 26.0821 13.0674H22.7991V2.92077H26.0821C26.747 2.91929 27.406 3.04924 28.0214 3.30395C28.6362 3.55867 29.1949 3.93226 29.6652 4.40404C30.1354 4.87582 30.5084 5.4362 30.762 6.0527C31.0155 6.66919 31.146 7.32998 31.1445 7.99742C31.1445 8.66411 31.0141 9.32417 30.7598 9.93992Z" fill="currentColor"></path><path d="M38.0718 0H35.1558V16H38.074L38.0718 0Z" fill="currentColor"></path><path d="M52.2992 0H39.5305V2.92741H44.4594V16H47.3783V2.92077H52.3036L52.2992 0Z" fill="currentColor"></path><path d="M64.8343 13.0674H56.6724V9.46075H64.8343V6.53334H56.6724V2.92077H64.8343V0H53.7586V16H64.8343V13.0674Z" fill="currentColor"></path><path d="M74.6752 7.85345L79.8695 0H76.2482L72.8996 5.2029L69.5495 0H65.9281L71.1224 7.86009L65.7851 15.9993H69.43L72.8929 10.5092L76.3543 15.9993H80L74.6752 7.85345Z" fill="currentColor"></path></svg>